<svg viewBox="0 0 920 380" xmlns="http://www.w3.org/2000/svg" aria-hidden="false" role="img" focusable="false">
    <defs>
        <linearGradient id="casingGrad" x1="0" x2="1">
            <stop offset="0" stop-color="#1b1c1f" />
            <stop offset="1" stop-color="#0f1113" />
        </linearGradient>
        <linearGradient id="edgeGrad" x1="0" x2="1">
            <stop offset="0" stop-color="#2a2b2e" />
            <stop offset="1" stop-color="#0b0c0d" />
        </linearGradient>
        <radialGradient id="fanBack" cx="50%" cy="40%" r="60%">
            <stop offset="0%" stop-color="#161617" />
            <stop offset="60%" stop-color="#0b0b0c" />
            <stop offset="100%" stop-color="#000000" />
        </radialGradient>
        <linearGradient id="bladeMetal" x1="0" y1="0" x2="1" y2="1">
            <stop offset="0" stop-color="#5f6062" />
            <stop offset="0.45" stop-color="#a3a4a6" />
            <stop offset="1" stop-color="#616264" />
        </linearGradient>
        <radialGradient id="hubGrad" cx="50%" cy="50%">
            <stop offset="0" stop-color="#bdbdbd" />
            <stop offset="60" stop-color="#8e8e8e" />
            <stop offset="100%" stop-color="#444" />
        </radialGradient>
        <linearGradient id="pipeGrad" x1="0" x2="1">
            <stop offset="0" stop-color="#bdbdbd" />
            <stop offset="1" stop-color="#777" />
        </linearGradient>
        <linearGradient id="gloss" x1="0" x2="0" y1="0" y2="1">
            <stop offset="0" stop-color="rgba(255,255,255,0.06)" />
            <stop offset="1" stop-color="rgba(255,255,255,0.00)" />
        </linearGradient>
        <path id="bladePath" d=" M 0 -76 C 16 -74, 46 -56, 60 -34 C 70 -18, 62 -6, 44 -2 C 24 2, 6 -6, -2 -22 C -10 -38, -6 -66, 0 -76 Z" />
        <radialGradient id="screwGrad" cx="50%" cy="50%">
            <stop offset="0" stop-color="#d0d0d0" />
            <stop offset="60%" stop-color="#7b7b7b" />
            <stop offset="100%" stop-color="#2a2a2a" />
        </radialGradient>
        <filter id="innerShadow" x="-50%" y="-50%" width="200%" height="200%">
            <feGaussianBlur stdDeviation="6" result="g" />
            <feOffset dx="0" dy="4" result="o" />
            <feComposite in2="SourceGraphic" in="o" operator="over" />
        </filter>
    </defs>
    <g id="gpuBody">
        <rect x="28" y="26" rx="22" ry="22" width="864" height="328" fill="url(#casingGrad)" stroke="rgba(255,255,255,0.02)" />
        <rect x="28" y="26" rx="22" ry="22" width="864" height="80" fill="url(#gloss)" />
        <g transform="translate(180,38)" stroke-linecap="round">
            <path d="M0,0 C32,0 64,18 96,18" stroke="url(#pipeGrad)" stroke-width="8" fill="none" />
            <path d="M120,0 C152,0 184,18 216,18" stroke="url(#pipeGrad)" stroke-width="8" fill="none" />
        </g>
        <g transform="translate(44,46)">
            <rect x="0" y="0" width="200" height="240" rx="12" fill="rgba(0,0,0,0.02)" />
        </g>
        <g transform="translate(780,92)">
            <rect x="0" y="0" width="96" height="160" rx="8" fill="#0c0c0d" />
            <g fill="#0a0a0b" opacity="0.9">
                <rect x="8" y="8" width="80" height="8" rx="4" />
                <rect x="8" y="28" width="80" height="8" rx="4" />
                <rect x="8" y="48" width="80" height="8" rx="4" />
                <rect x="8" y="68" width="80" height="8" rx="4" />
                <rect x="8" y="88" width="80" height="8" rx="4" />
                <rect x="8" y="108" width="80" height="8" rx="4" />
                <rect x="8" y="128" width="80" height="8" rx="4" />
            </g>
        </g>
        <g transform="translate(16,118)">
            <rect x="0" y="0" width="18" height="140" rx="3" fill="#9fa6ad" />
            <rect x="4" y="0" width="10" height="140" rx="2" fill="#6b7278" />
        </g>
        <g transform="translate(48,300)">
            <rect x="0" y="0" width="420" height="28" fill="rgba(0,0,0,0.0)" />
            <g transform="translate(6,6)">
                <rect x="0" y="0" width="26" height="16" rx="2" fill="#c28b2b" />
                <rect x="34" y="0" width="28" height="16" rx="2" fill="#c28b2b" />
                <rect x="68" y="0" width="24" height="16" rx="2" fill="#c28b2b" />
                <rect x="102" y="0" width="20" height="16" rx="2" fill="#c28b2b" />
                <rect x="132" y="0" width="18" height="16" rx="2" fill="#c28b2b" />
            </g>
        </g>
        <g id="screws" fill="url(#screwGrad)" opacity="0.95">
            <circle cx="68" cy="60" r="4" />
            <circle cx="852" cy="60" r="4" />
            <circle cx="68" cy="320" r="4" />
            <circle cx="852" cy="320" r="4" />
        </g>
    </g>
    <g id="leftFan" transform="translate(260,190)">
        <circle cx="0" cy="0" r="86" fill="none" stroke="#050506" stroke-width="6" />
        <circle cx="0" cy="0" r="82" fill="url(#fanBack)" />
        <circle cx="0" cy="0" r="70" fill="rgba(0,0,0,0.36)" />
        <g id="leftRotor" class="rotor">
            <g transform="translate(0,0) scale(0.98)">
                <use href="#bladePath" fill="url(#bladeMetal)" transform="rotate(0)" />
                <use href="#bladePath" fill="url(#bladeMetal)" transform="rotate(30)" />
                <use href="#bladePath" fill="url(#bladeMetal)" transform="rotate(60)" />
                <use href="#bladePath" fill="url(#bladeMetal)" transform="rotate(90)" />
                <use href="#bladePath" fill="url(#bladeMetal)" transform="rotate(120)" />
                <use href="#bladePath" fill="url(#bladeMetal)" transform="rotate(150)" />
                <use href="#bladePath" fill="url(#bladeMetal)" transform="rotate(180)" />
                <use href="#bladePath" fill="url(#bladeMetal)" transform="rotate(210)" />
                <use href="#bladePath" fill="url(#bladeMetal)" transform="rotate(240)" />
                <use href="#bladePath" fill="url(#bladeMetal)" transform="rotate(270)" />
                <use href="#bladePath" fill="url(#bladeMetal)" transform="rotate(300)" />
                <use href="#bladePath" fill="url(#bladeMetal)" transform="rotate(330)" />
            </g>
            <circle cx="0" cy="0" r="18" fill="url(#hubGrad)" stroke="#9b9b9b" stroke-width="1.2" />
            <circle cx="0" cy="0" r="6" fill="#333" />
        </g>
    </g>
    <g id="rightFan" transform="translate(590,190)">
        <circle cx="0" cy="0" r="86" fill="none" stroke="#050506" stroke-width="6" />
        <circle cx="0" cy="0" r="82" fill="url(#fanBack)" />
        <circle cx="0" cy="0" r="70" fill="rgba(0,0,0,0.36)" />
        <g id="rightRotor" class="rotor">
            <g transform="translate(0,0) scale(0.98)">
                <use href="#bladePath" fill="url(#bladeMetal)" transform="rotate(0)" />
                <use href="#bladePath" fill="url(#bladeMetal)" transform="rotate(30)" />
                <use href="#bladePath" fill="url(#bladeMetal)" transform="rotate(60)" />
                <use href="#bladePath" fill="url(#bladeMetal)" transform="rotate(90)" />
                <use href="#bladePath" fill="url(#bladeMetal)" transform="rotate(120)" />
                <use href="#bladePath" fill="url(#bladeMetal)" transform="rotate(150)" />
                <use href="#bladePath" fill="url(#bladeMetal)" transform="rotate(180)" />
                <use href="#bladePath" fill="url(#bladeMetal)" transform="rotate(210)" />
                <use href="#bladePath" fill="url(#bladeMetal)" transform="rotate(240)" />
                <use href="#bladePath" fill="url(#bladeMetal)" transform="rotate(270)" />
                <use href="#bladePath" fill="url(#bladeMetal)" transform="rotate(300)" />
                <use href="#bladePath" fill="url(#bladeMetal)" transform="rotate(330)" />
            </g>
            <circle cx="0" cy="0" r="18" fill="url(#hubGrad)" stroke="#9b9b9b" stroke-width="1.2" />
            <circle cx="0" cy="0" r="6" fill="#333" />
        </g>
    </g>
    <g transform="translate(40,40)">
        <path d="M0 0 H840 V36 Q820 22 790 22 H50 Q30 22 10 36 V0 Z" fill="rgba(0,0,0,0.06)" />
    </g>
    <ellipse cx="460" cy="365" rx="240" ry="22" fill="rgba(0,0,0,0.55)" />
</svg>
